<svg width="72" height="69" viewBox="0 0 72 69" fill="none" xmlns="http://www.w3.org/2000/svg">
<rect x="6.42871" y="22.0356" width="59.1421" height="46.4643" rx="4.5" stroke="#030303"/>
<line x1="35.5" y1="22.1709" x2="35.5" y2="12" stroke="black"/>
<path d="M41.5 6C41.5 9.00064 38.8521 11.5 35.5 11.5C32.1479 11.5 29.5 9.00064 29.5 6C29.5 2.99936 32.1479 0.5 35.5 0.5C38.8521 0.5 41.5 2.99936 41.5 6Z" stroke="#030303"/>
<path d="M55.2614 43.5727C55.2614 47.035 52.4144 49.8534 48.888 49.8534C45.3617 49.8534 42.5146 47.035 42.5146 43.5727C42.5146 40.1104 45.3617 37.2921 48.888 37.2921C52.4144 37.2921 55.2614 40.1104 55.2614 43.5727Z" stroke="#030303"/>
<path d="M65.5001 42.8318L65.5001 38.0247L65.5001 36.563L65.5001 36.5003C65.6479 36.4988 65.8272 36.5021 66.0301 36.5157C66.6296 36.5561 67.4181 36.6857 68.1989 37.0357C68.975 37.3835 69.7426 37.9481 70.3198 38.8664C70.898 39.7862 71.3067 41.0951 71.3066 42.9658C71.3066 45.0897 70.8937 46.5711 70.308 47.6052C69.7249 48.6348 68.9547 49.2496 68.1869 49.6183C67.4129 49.99 66.6318 50.1157 66.0378 50.1464C65.831 50.1571 65.6488 50.1562 65.5001 50.1505L65.5001 49.9209L65.5001 48.125L65.5001 42.8318Z" stroke="#030303"/>
<path d="M6.3065 43.8229L6.3065 48.6299L6.3065 50.0916L6.3065 50.1544C6.15875 50.1559 5.97939 50.1526 5.77655 50.1389C5.17705 50.0986 4.38857 49.9689 3.60773 49.6189C2.83168 49.2711 2.06407 48.7066 1.48681 47.7882C0.908677 46.8685 0.499987 45.5595 0.499999 43.6888C0.500005 41.565 0.912965 40.0835 1.4986 39.0494C2.0817 38.0198 2.85192 37.4051 3.61971 37.0364C4.39373 36.6647 5.17482 36.539 5.76881 36.5083C5.97566 36.4976 6.15783 36.4985 6.3065 36.5041L6.3065 36.7338L6.3065 38.5297L6.3065 43.8229Z" stroke="#030303"/>
<path d="M29.486 43.5727C29.486 47.035 26.639 49.8534 23.1126 49.8534C19.5863 49.8534 16.7393 47.035 16.7393 43.5727C16.7393 40.1104 19.5863 37.2921 23.1126 37.2921C26.639 37.2921 29.486 40.1104 29.486 43.5727Z" stroke="#030303"/>
</svg>
