<svg width="24" height="24" viewBox="0 0 24 24" fill="none" xmlns="http://www.w3.org/2000/svg">
<path d="M13.4996 5.252H20.9973V8.25111H13.4996V5.252ZM13.4996 15.7489H20.9973V18.748H13.4996V15.7489ZM22.4969 0.0035517L1.50311 0.00354907C-0.146406 0.00354907 0.00354924 -0.146404 0.00354924 1.50311L0.00366102 22.4969C0.00366102 24.1464 -0.146406 23.9964 1.50311 23.9964H22.4969C24.1464 23.9964 23.9965 24.1464 23.9965 22.4969V1.50311C23.9965 -0.146404 24.1464 0.0035517 22.4969 0.0035517ZM22.4969 22.4969H1.50311V1.50311H22.4969V22.4969ZM10.5004 3.00266H3.00266V10.5004H10.5004V3.00266ZM9.00089 9.00089H4.50222V4.50222H9.00089V9.00089ZM10.5004 13.4996H3.00266V20.9973H10.5004V13.4996ZM9.00089 19.4978H4.50222V14.9991H9.00089V19.4978Z" fill="#030303"/>
</svg>
