<svg width="23" height="19" viewBox="0 0 23 19" fill="none" xmlns="http://www.w3.org/2000/svg">
<path d="M20.6453 4.65257C20.6594 4.85533 20.6594 5.0581 20.6594 5.26273C20.6594 11.4979 15.9127 18.689 7.23311 18.689V18.6852C4.66915 18.689 2.15844 17.9545 0 16.5698C0.372821 16.6146 0.747512 16.6371 1.12314 16.638C3.24794 16.6399 5.312 15.9269 6.98363 14.6141C4.96441 14.5758 3.19374 13.2592 2.57518 11.3372C3.28251 11.4736 4.01133 11.4456 4.70559 11.2559C2.50416 10.8111 0.920374 8.87695 0.920374 6.63067C0.920374 6.61012 0.920374 6.5905 0.920374 6.57087C1.57632 6.93622 2.31075 7.13898 3.06199 7.16141C0.988584 5.77571 0.349462 3.01739 1.60154 0.860818C3.99732 3.80882 7.53211 5.60098 11.3267 5.79066C10.9464 4.15174 11.4659 2.43433 12.6918 1.28223C14.5924 -0.504325 17.5815 -0.412755 19.368 1.48686C20.4248 1.27849 21.4377 0.890719 22.3646 0.341297C22.0124 1.4336 21.2751 2.36145 20.2903 2.95105C21.2256 2.84079 22.1394 2.59037 23 2.20821C22.3665 3.15755 21.5685 3.98448 20.6453 4.65257Z" fill="#1D9BF0"/>
</svg>
