<svg width="24" height="24" viewBox="0 0 24 24" fill="none" xmlns="http://www.w3.org/2000/svg">
<path fill-rule="evenodd" clip-rule="evenodd" d="M13.3333 8.66667H20V6H13.3333V8.66667ZM13.3333 18H20V15.3333H13.3333V18ZM21.3333 24H2.66667C1.2 24 0 22.8 0 21.3333V2.66667C0 1.2 1.2 0 2.66667 0H21.3333C22.8 0 24 1.2 24 2.66667V21.3333C24 22.8 22.8 24 21.3333 24ZM4 10.6667H10.6667V4H4V10.6667ZM5.33333 5.33333H9.33333V9.33333H5.33333V5.33333ZM4 20H10.6667V13.3333H4V20ZM5.33333 14.6667H9.33333V18.6667H5.33333V14.6667Z" fill="#323232"/>
</svg>
